<svg height="511pt" viewBox="1 -15 511.999 511" width="511pt" xmlns="http://www.w3.org/2000/svg"><path d="m450.925781 294.167969v-58.550781c0-4.140626-3.355469-7.5-7.5-7.5-4.140625 0-7.5 3.359374-7.5 7.5v53.863281c-6.769531-1.507813-14.097656-2.335938-21.292969-2.335938-14.097656 0-28.195312 3.027344-41.382812 9.242188l-57.832031-56.050781 120.507812-116.800782v77.082032c0 4.144531 3.359375 7.5 7.5 7.5 4.144531 0 7.5-3.355469 7.5-7.5v-94.796876c0-12.65625-10.296875-22.957031-22.957031-22.957031h-15.980469v-62.167969c0-11.136718-9.058593-20.195312-20.195312-20.195312h-332.65625c-11.136719 0-20.199219 9.058594-20.199219 20.195312v62.167969h-15.980469c-12.65625 0-22.957031 10.296875-22.957031 22.957031v269.027344c0 12.660156 10.296875 22.957032 22.957031 22.957032h185.003907c4.144531 0 7.503906-3.355469 7.503906-7.5 0-4.144532-3.359375-7.5-7.503906-7.5h-185.003907c-3.285156 0-6.328125-2.078126-7.472656-5.25l130.804687-126.773438 27.605469 26.753906c28.882813 27.996094 74.523438 27.738282 103.140625 0l27.605469-26.753906 55.039063 53.339844c-25.28125 17.289062-41.820313 46.207031-42.398438 78.683594h-74.316406c-4.144532 0-7.5 3.359374-7.5 7.5 0 4.144531 3.355468 7.5 7.5 7.5h75.210937c6.503907 47.421874 47.277344 84.074218 96.457031 84.074218 53.6875 0 97.367188-43.679687 97.367188-97.367187 0-40.863281-25.308594-75.925781-61.074219-90.34375zm-391.789062-278.667969h332.65625c1.679687 0 3.480469.898438 4.503906 2.691406l-66.730469 64.671875h-208.207031l-66.726563-64.671875c1.011719-1.78125 2.804688-2.691406 4.503907-2.691406zm337.851562 22.910156v44.453125h-45.867187zm-343.046875 0 45.863282 44.453125h-45.863282zm-38.941406 318.722656v-233.597656l120.511719 116.800782zm251.59375-90.371093c-23.0625 22.355469-59.195312 22.355469-82.257812 0-7.21875-6.992188-162.875-157.855469-168.851563-163.648438 1.199219-3.25 4.253906-5.25 7.472656-5.25h405.011719c3.234375 0 6.300781 2.019531 7.472656 5.25-5.679687 5.507813-160.742187 155.792969-168.847656 163.648438zm148.039062 200.113281c-43.789062 0-80.308593-34.515625-82.277343-78.796875-2.007813-47.085937 35.734375-85.933594 82.277343-85.933594 45.367188 0 82.367188 36.90625 82.367188 82.367188 0 45.417969-36.949219 82.363281-82.367188 82.363281zm0 0"/><path d="m449.242188 356.851562-43.484376 43.484376-22.023437-22.023438c-2.929687-2.925781-7.675781-2.925781-10.605469 0-2.929687 2.929688-2.929687 7.679688 0 10.609375l27.324219 27.324219c2.933594 2.929687 7.679687 2.929687 10.609375 0l48.789062-48.785156c2.925782-2.929688 2.925782-7.679688 0-10.609376-2.933593-2.925781-7.679687-2.925781-10.609374 0zm0 0"/></svg>